<?xml version="1.0" standalone="no"?>
<!DOCTYPE svg PUBLIC "-//W3C//DTD SVG 1.1//EN" "http://www.w3.org/Graphics/SVG/1.1/DTD/svg11.dtd">
<svg version="1.1" width="1200" height="790" onload="init(evt)" viewBox="0 0 1200 790" xmlns="http://www.w3.org/2000/svg" xmlns:xlink="http://www.w3.org/1999/xlink">
<!-- Flame graph stack visualization. See https://github.com/brendangregg/FlameGraph for latest version, and http://www.brendangregg.com/flamegraphs.html for examples. -->
<!-- NOTES:  -->
<defs>
	<linearGradient id="background" y1="0" y2="1" x1="0" x2="0" >
		<stop stop-color="#f8f8f8" offset="5%" />
		<stop stop-color="#e8e8e8" offset="95%" />
	</linearGradient>
</defs>
<style type="text/css">
	text { font-family:Verdana; font-size:12px; fill:rgb(0,0,0); }
	#search, #ignorecase { opacity:0.1; cursor:pointer; }
	#search:hover, #search.show, #ignorecase:hover, #ignorecase.show { opacity:1; }
	#subtitle { text-anchor:middle; font-color:rgb(160,160,160); }
	#title { text-anchor:middle; font-size:17px}
	#unzoom { cursor:pointer; }
	#frames > *:hover { stroke:black; stroke-width:0.5; cursor:pointer; }
	.hide { display:none; }
	.parent { opacity:0.5; }
</style>
<script type="text/ecmascript">
<![CDATA[
	"use strict";
	var details, searchbtn, unzoombtn, matchedtxt, svg, searching, currentSearchTerm, ignorecase, ignorecaseBtn;
	function init(evt) {
		details = document.getElementById("details").firstChild;
		searchbtn = document.getElementById("search");
		ignorecaseBtn = document.getElementById("ignorecase");
		unzoombtn = document.getElementById("unzoom");
		matchedtxt = document.getElementById("matched");
		svg = document.getElementsByTagName("svg")[0];
		searching = 0;
		currentSearchTerm = null;

		// use GET parameters to restore a flamegraphs state.
		var params = get_params();
		if (params.x && params.y)
			zoom(find_group(document.querySelector('[x="' + params.x + '"][y="' + params.y + '"]')));
                if (params.s) search(params.s);
	}

	// event listeners
	window.addEventListener("click", function(e) {
		var target = find_group(e.target);
		if (target) {
			if (target.nodeName == "a") {
				if (e.ctrlKey === false) return;
				e.preventDefault();
			}
			if (target.classList.contains("parent")) unzoom(true);
			zoom(target);
			if (!document.querySelector('.parent')) {
				// we have basically done a clearzoom so clear the url
				var params = get_params();
				if (params.x) delete params.x;
				if (params.y) delete params.y;
				history.replaceState(null, null, parse_params(params));
				unzoombtn.classList.add("hide");
				return;
			}

			// set parameters for zoom state
			var el = target.querySelector("rect");
			if (el && el.attributes && el.attributes.y && el.attributes._orig_x) {
				var params = get_params()
				params.x = el.attributes._orig_x.value;
				params.y = el.attributes.y.value;
				history.replaceState(null, null, parse_params(params));
			}
		}
		else if (e.target.id == "unzoom") clearzoom();
		else if (e.target.id == "search") search_prompt();
		else if (e.target.id == "ignorecase") toggle_ignorecase();
	}, false)

	// mouse-over for info
	// show
	window.addEventListener("mouseover", function(e) {
		var target = find_group(e.target);
		if (target) details.nodeValue = "Function: " + g_to_text(target);
	}, false)

	// clear
	window.addEventListener("mouseout", function(e) {
		var target = find_group(e.target);
		if (target) details.nodeValue = ' ';
	}, false)

	// ctrl-F for search
	// ctrl-I to toggle case-sensitive search
	window.addEventListener("keydown",function (e) {
		if (e.keyCode === 114 || (e.ctrlKey && e.keyCode === 70)) {
			e.preventDefault();
			search_prompt();
		}
		else if (e.ctrlKey && e.keyCode === 73) {
			e.preventDefault();
			toggle_ignorecase();
		}
	}, false)

	// functions
	function get_params() {
		var params = {};
		var paramsarr = window.location.search.substr(1).split('&');
		for (var i = 0; i < paramsarr.length; ++i) {
			var tmp = paramsarr[i].split("=");
			if (!tmp[0] || !tmp[1]) continue;
			params[tmp[0]]  = decodeURIComponent(tmp[1]);
		}
		return params;
	}
	function parse_params(params) {
		var uri = "?";
		for (var key in params) {
			uri += key + '=' + encodeURIComponent(params[key]) + '&';
		}
		if (uri.slice(-1) == "&")
			uri = uri.substring(0, uri.length - 1);
		if (uri == '?')
			uri = window.location.href.split('?')[0];
		return uri;
	}
	function find_child(node, selector) {
		var children = node.querySelectorAll(selector);
		if (children.length) return children[0];
	}
	function find_group(node) {
		var parent = node.parentElement;
		if (!parent) return;
		if (parent.id == "frames") return node;
		return find_group(parent);
	}
	function orig_save(e, attr, val) {
		if (e.attributes["_orig_" + attr] != undefined) return;
		if (e.attributes[attr] == undefined) return;
		if (val == undefined) val = e.attributes[attr].value;
		e.setAttribute("_orig_" + attr, val);
	}
	function orig_load(e, attr) {
		if (e.attributes["_orig_"+attr] == undefined) return;
		e.attributes[attr].value = e.attributes["_orig_" + attr].value;
		e.removeAttribute("_orig_"+attr);
	}
	function g_to_text(e) {
		var text = find_child(e, "title").firstChild.nodeValue;
		return (text)
	}
	function g_to_func(e) {
		var func = g_to_text(e);
		// if there's any manipulation we want to do to the function
		// name before it's searched, do it here before returning.
		return (func);
	}
	function update_text(e) {
		var r = find_child(e, "rect");
		var t = find_child(e, "text");
		var w = parseFloat(r.attributes.width.value) -3;
		var txt = find_child(e, "title").textContent.replace(/\([^(]*\)$/,"");
		t.attributes.x.value = parseFloat(r.attributes.x.value) + 3;

		// Smaller than this size won't fit anything
		if (w < 2 * 12 * 0.59) {
			t.textContent = "";
			return;
		}

		t.textContent = txt;
		var sl = t.getSubStringLength(0, txt.length);
		// check if only whitespace or if we can fit the entire string into width w
		if (/^ *$/.test(txt) || sl < w)
			return;

		// this isn't perfect, but gives a good starting point
		// and avoids calling getSubStringLength too often
		var start = Math.floor((w/sl) * txt.length);
		for (var x = start; x > 0; x = x-2) {
			if (t.getSubStringLength(0, x + 2) <= w) {
				t.textContent = txt.substring(0, x) + "..";
				return;
			}
		}
		t.textContent = "";
	}

	// zoom
	function zoom_reset(e) {
		if (e.attributes != undefined) {
			orig_load(e, "x");
			orig_load(e, "width");
		}
		if (e.childNodes == undefined) return;
		for (var i = 0, c = e.childNodes; i < c.length; i++) {
			zoom_reset(c[i]);
		}
	}
	function zoom_child(e, x, ratio) {
		if (e.attributes != undefined) {
			if (e.attributes.x != undefined) {
				orig_save(e, "x");
				e.attributes.x.value = (parseFloat(e.attributes.x.value) - x - 10) * ratio + 10;
				if (e.tagName == "text")
					e.attributes.x.value = find_child(e.parentNode, "rect[x]").attributes.x.value + 3;
			}
			if (e.attributes.width != undefined) {
				orig_save(e, "width");
				e.attributes.width.value = parseFloat(e.attributes.width.value) * ratio;
			}
		}

		if (e.childNodes == undefined) return;
		for (var i = 0, c = e.childNodes; i < c.length; i++) {
			zoom_child(c[i], x - 10, ratio);
		}
	}
	function zoom_parent(e) {
		if (e.attributes) {
			if (e.attributes.x != undefined) {
				orig_save(e, "x");
				e.attributes.x.value = 10;
			}
			if (e.attributes.width != undefined) {
				orig_save(e, "width");
				e.attributes.width.value = parseInt(svg.width.baseVal.value) - (10 * 2);
			}
		}
		if (e.childNodes == undefined) return;
		for (var i = 0, c = e.childNodes; i < c.length; i++) {
			zoom_parent(c[i]);
		}
	}
	function zoom(node) {
		var attr = find_child(node, "rect").attributes;
		var width = parseFloat(attr.width.value);
		var xmin = parseFloat(attr.x.value);
		var xmax = parseFloat(xmin + width);
		var ymin = parseFloat(attr.y.value);
		var ratio = (svg.width.baseVal.value - 2 * 10) / width;

		// XXX: Workaround for JavaScript float issues (fix me)
		var fudge = 0.0001;

		unzoombtn.classList.remove("hide");

		var el = document.getElementById("frames").children;
		for (var i = 0; i < el.length; i++) {
			var e = el[i];
			var a = find_child(e, "rect").attributes;
			var ex = parseFloat(a.x.value);
			var ew = parseFloat(a.width.value);
			var upstack;
			// Is it an ancestor
			if (0 == 0) {
				upstack = parseFloat(a.y.value) > ymin;
			} else {
				upstack = parseFloat(a.y.value) < ymin;
			}
			if (upstack) {
				// Direct ancestor
				if (ex <= xmin && (ex+ew+fudge) >= xmax) {
					e.classList.add("parent");
					zoom_parent(e);
					update_text(e);
				}
				// not in current path
				else
					e.classList.add("hide");
			}
			// Children maybe
			else {
				// no common path
				if (ex < xmin || ex + fudge >= xmax) {
					e.classList.add("hide");
				}
				else {
					zoom_child(e, xmin, ratio);
					update_text(e);
				}
			}
		}
		search();
	}
	function unzoom(dont_update_text) {
		unzoombtn.classList.add("hide");
		var el = document.getElementById("frames").children;
		for(var i = 0; i < el.length; i++) {
			el[i].classList.remove("parent");
			el[i].classList.remove("hide");
			zoom_reset(el[i]);
			if(!dont_update_text) update_text(el[i]);
		}
		search();
	}
	function clearzoom() {
		unzoom();

		// remove zoom state
		var params = get_params();
		if (params.x) delete params.x;
		if (params.y) delete params.y;
		history.replaceState(null, null, parse_params(params));
	}

	// search
	function toggle_ignorecase() {
		ignorecase = !ignorecase;
		if (ignorecase) {
			ignorecaseBtn.classList.add("show");
		} else {
			ignorecaseBtn.classList.remove("show");
		}
		reset_search();
		search();
	}
	function reset_search() {
		var el = document.querySelectorAll("#frames rect");
		for (var i = 0; i < el.length; i++) {
			orig_load(el[i], "fill")
		}
		var params = get_params();
		delete params.s;
		history.replaceState(null, null, parse_params(params));
	}
	function search_prompt() {
		if (!searching) {
			var term = prompt("Enter a search term (regexp " +
			    "allowed, eg: ^ext4_)"
			    + (ignorecase ? ", ignoring case" : "")
			    + "\nPress Ctrl-i to toggle case sensitivity", "");
			if (term != null) search(term);
		} else {
			reset_search();
			searching = 0;
			currentSearchTerm = null;
			searchbtn.classList.remove("show");
			searchbtn.firstChild.nodeValue = "Search"
			matchedtxt.classList.add("hide");
			matchedtxt.firstChild.nodeValue = ""
		}
	}
	function search(term) {
		if (term) currentSearchTerm = term;

		var re = new RegExp(currentSearchTerm, ignorecase ? 'i' : '');
		var el = document.getElementById("frames").children;
		var matches = new Object();
		var maxwidth = 0;
		for (var i = 0; i < el.length; i++) {
			var e = el[i];
			var func = g_to_func(e);
			var rect = find_child(e, "rect");
			if (func == null || rect == null)
				continue;

			// Save max width. Only works as we have a root frame
			var w = parseFloat(rect.attributes.width.value);
			if (w > maxwidth)
				maxwidth = w;

			if (func.match(re)) {
				// highlight
				var x = parseFloat(rect.attributes.x.value);
				orig_save(rect, "fill");
				rect.attributes.fill.value = "rgb(230,0,230)";

				// remember matches
				if (matches[x] == undefined) {
					matches[x] = w;
				} else {
					if (w > matches[x]) {
						// overwrite with parent
						matches[x] = w;
					}
				}
				searching = 1;
			}
		}
		if (!searching)
			return;
		var params = get_params();
		params.s = currentSearchTerm;
		history.replaceState(null, null, parse_params(params));

		searchbtn.classList.add("show");
		searchbtn.firstChild.nodeValue = "Reset Search";

		// calculate percent matched, excluding vertical overlap
		var count = 0;
		var lastx = -1;
		var lastw = 0;
		var keys = Array();
		for (k in matches) {
			if (matches.hasOwnProperty(k))
				keys.push(k);
		}
		// sort the matched frames by their x location
		// ascending, then width descending
		keys.sort(function(a, b){
			return a - b;
		});
		// Step through frames saving only the biggest bottom-up frames
		// thanks to the sort order. This relies on the tree property
		// where children are always smaller than their parents.
		var fudge = 0.0001;	// JavaScript floating point
		for (var k in keys) {
			var x = parseFloat(keys[k]);
			var w = matches[keys[k]];
			if (x >= lastx + lastw - fudge) {
				count += w;
				lastx = x;
				lastw = w;
			}
		}
		// display matched percent
		matchedtxt.classList.remove("hide");
		var pct = 100 * count / maxwidth;
		if (pct != 100) pct = pct.toFixed(1)
		matchedtxt.firstChild.nodeValue = "Matched: " + pct + "%";
	}
]]>
</script>
<rect x="0.0" y="0" width="1200.0" height="790.0" fill="url(#background)"  />
<text id="title" x="600.00" y="24" >Flame Graph</text>
<text id="details" x="10.00" y="773" > </text>
<text id="unzoom" x="10.00" y="24" class="hide">Reset Zoom</text>
<text id="search" x="1090.00" y="24" >Search</text>
<text id="ignorecase" x="1174.00" y="24" >ic</text>
<text id="matched" x="1090.00" y="773" > </text>
<g id="frames">
<g >
<title>io_init_req (10,101,010 samples, 1.72%)</title><rect x="1149.3" y="549" width="20.4" height="15.0" fill="rgb(80,80,205)" rx="2" ry="2" />
<text  x="1152.31" y="559.5" ></text>
</g>
<g >
<title>submit_bio (30,303,030 samples, 5.17%)</title><rect x="1027.2" y="341" width="61.1" height="15.0" fill="rgb(83,83,207)" rx="2" ry="2" />
<text  x="1030.24" y="351.5" >submit..</text>
</g>
<g >
<title>blk_mq_flush_plug_list (20,202,020 samples, 3.45%)</title><rect x="1027.2" y="261" width="40.7" height="15.0" fill="rgb(92,92,215)" rx="2" ry="2" />
<text  x="1030.24" y="271.5" >blk..</text>
</g>
<g >
<title>rmqueue (10,101,010 samples, 1.72%)</title><rect x="681.4" y="325" width="20.3" height="15.0" fill="rgb(105,105,226)" rx="2" ry="2" />
<text  x="684.38" y="335.5" ></text>
</g>
<g >
<title>iouring_raw_iov (585,858,580 samples, 100.00%)</title><rect x="10.0" y="725" width="1180.0" height="15.0" fill="rgb(139,139,254)" rx="2" ry="2" />
<text  x="13.00" y="735.5" >iouring_raw_iov</text>
</g>
<g >
<title>__add_to_page_cache_locked (101,010,100 samples, 17.24%)</title><rect x="701.7" y="373" width="203.5" height="15.0" fill="rgb(139,139,254)" rx="2" ry="2" />
<text  x="704.72" y="383.5" >__add_to_page_cache_locked</text>
</g>
<g >
<title>memcg_slab_free_hook (10,101,010 samples, 1.72%)</title><rect x="1169.7" y="501" width="20.3" height="15.0" fill="rgb(85,85,209)" rx="2" ry="2" />
<text  x="1172.66" y="511.5" ></text>
</g>
<g >
<title>x64_sys_call (363,636,360 samples, 62.07%)</title><rect x="437.2" y="629" width="732.5" height="15.0" fill="rgb(130,130,247)" rx="2" ry="2" />
<text  x="440.24" y="639.5" >x64_sys_call</text>
</g>
<g >
<title>do_exit (10,101,010 samples, 1.72%)</title><rect x="1169.7" y="629" width="20.3" height="15.0" fill="rgb(111,111,231)" rx="2" ry="2" />
<text  x="1172.66" y="639.5" ></text>
</g>
<g >
<title>handle_pte_fault (20,202,020 samples, 3.45%)</title><rect x="10.0" y="597" width="40.7" height="15.0" fill="rgb(94,94,217)" rx="2" ry="2" />
<text  x="13.00" y="607.5" >han..</text>
</g>
<g >
<title>clear_page_rep (80,808,080 samples, 13.79%)</title><rect x="518.6" y="325" width="162.8" height="15.0" fill="rgb(137,137,253)" rx="2" ry="2" />
<text  x="521.62" y="335.5" >clear_page_rep</text>
</g>
<g >
<title>do_syscall_64 (10,101,010 samples, 1.72%)</title><rect x="1169.7" y="693" width="20.3" height="15.0" fill="rgb(85,85,209)" rx="2" ry="2" />
<text  x="1172.66" y="703.5" ></text>
</g>
<g >
<title>____fput (10,101,010 samples, 1.72%)</title><rect x="1169.7" y="597" width="20.3" height="15.0" fill="rgb(99,99,221)" rx="2" ry="2" />
<text  x="1172.66" y="607.5" ></text>
</g>
<g >
<title>scsi_dispatch_cmd (20,202,020 samples, 3.45%)</title><rect x="1027.2" y="85" width="40.7" height="15.0" fill="rgb(91,91,214)" rx="2" ry="2" />
<text  x="1030.24" y="95.5" >scs..</text>
</g>
<g >
<title>syscall_exit_to_user_mode (191,919,190 samples, 32.76%)</title><rect x="50.7" y="629" width="386.5" height="15.0" fill="rgb(135,135,251)" rx="2" ry="2" />
<text  x="53.69" y="639.5" >syscall_exit_to_user_mode</text>
</g>
<g >
<title>get_page_from_freelist (101,010,100 samples, 17.24%)</title><rect x="498.3" y="341" width="203.4" height="15.0" fill="rgb(136,136,252)" rx="2" ry="2" />
<text  x="501.28" y="351.5" >get_page_from_freelist</text>
</g>
<g >
<title>asm_exc_page_fault (20,202,020 samples, 3.45%)</title><rect x="10.0" y="677" width="40.7" height="15.0" fill="rgb(104,104,225)" rx="2" ry="2" />
<text  x="13.00" y="687.5" >asm..</text>
</g>
<g >
<title>ext4_file_read_iter (191,919,190 samples, 32.76%)</title><rect x="50.7" y="485" width="386.5" height="15.0" fill="rgb(127,127,244)" rx="2" ry="2" />
<text  x="53.69" y="495.5" >ext4_file_read_iter</text>
</g>
<g >
<title>do_anonymous_page (20,202,020 samples, 3.45%)</title><rect x="10.0" y="581" width="40.7" height="15.0" fill="rgb(120,120,238)" rx="2" ry="2" />
<text  x="13.00" y="591.5" >do_..</text>
</g>
<g >
<title>lru_cache_add (50,505,050 samples, 8.62%)</title><rect x="905.2" y="373" width="101.7" height="15.0" fill="rgb(131,131,247)" rx="2" ry="2" />
<text  x="908.17" y="383.5" >lru_cache_add</text>
</g>
<g >
<title>io_read (10,101,010 samples, 1.72%)</title><rect x="437.2" y="469" width="20.4" height="15.0" fill="rgb(125,125,243)" rx="2" ry="2" />
<text  x="440.24" y="479.5" ></text>
</g>
<g >
<title>__next_zones_zonelist (10,101,010 samples, 1.72%)</title><rect x="498.3" y="325" width="20.3" height="15.0" fill="rgb(102,102,223)" rx="2" ry="2" />
<text  x="501.28" y="335.5" ></text>
</g>
<g >
<title>blk_mq_run_hw_queue (20,202,020 samples, 3.45%)</title><rect x="1027.2" y="229" width="40.7" height="15.0" fill="rgb(89,89,212)" rx="2" ry="2" />
<text  x="1030.24" y="239.5" >blk..</text>
</g>
<g >
<title>copy_user_generic_string (10,101,010 samples, 1.72%)</title><rect x="437.2" y="405" width="20.4" height="15.0" fill="rgb(80,80,205)" rx="2" ry="2" />
<text  x="440.24" y="415.5" ></text>
</g>
<g >
<title>rcu_read_unlock_strict (10,101,010 samples, 1.72%)</title><rect x="844.1" y="357" width="20.4" height="15.0" fill="rgb(99,99,221)" rx="2" ry="2" />
<text  x="847.14" y="367.5" ></text>
</g>
<g >
<title>generic_file_read_iter (191,919,190 samples, 32.76%)</title><rect x="50.7" y="469" width="386.5" height="15.0" fill="rgb(100,100,222)" rx="2" ry="2" />
<text  x="53.69" y="479.5" >generic_file_read_iter</text>
</g>
<g >
<title>add_to_page_cache_lru (151,515,150 samples, 25.86%)</title><rect x="701.7" y="389" width="305.2" height="15.0" fill="rgb(117,117,236)" rx="2" ry="2" />
<text  x="704.72" y="399.5" >add_to_page_cache_lru</text>
</g>
<g >
<title>generic_file_read_iter (323,232,320 samples, 55.17%)</title><rect x="457.6" y="485" width="651.0" height="15.0" fill="rgb(100,100,222)" rx="2" ry="2" />
<text  x="460.59" y="495.5" >generic_file_read_iter</text>
</g>
<g >
<title>io_read (343,434,340 samples, 58.62%)</title><rect x="457.6" y="517" width="691.7" height="15.0" fill="rgb(125,125,243)" rx="2" ry="2" />
<text  x="460.59" y="527.5" >io_read</text>
</g>
<g >
<title>__pagevec_lru_add (50,505,050 samples, 8.62%)</title><rect x="905.2" y="357" width="101.7" height="15.0" fill="rgb(107,107,228)" rx="2" ry="2" />
<text  x="908.17" y="367.5" >__pagevec_lr..</text>
</g>
<g >
<title>blk_cgroup_bio_start (10,101,010 samples, 1.72%)</title><rect x="1067.9" y="277" width="20.4" height="15.0" fill="rgb(109,109,229)" rx="2" ry="2" />
<text  x="1070.93" y="287.5" ></text>
</g>
<g >
<title>do_syscall_64 (555,555,550 samples, 94.83%)</title><rect x="50.7" y="645" width="1119.0" height="15.0" fill="rgb(85,85,209)" rx="2" ry="2" />
<text  x="53.69" y="655.5" >do_syscall_64</text>
</g>
<g >
<title>filemap_read (10,101,010 samples, 1.72%)</title><rect x="437.2" y="421" width="20.4" height="15.0" fill="rgb(130,130,246)" rx="2" ry="2" />
<text  x="440.24" y="431.5" ></text>
</g>
<g >
<title>io_uring_release (10,101,010 samples, 1.72%)</title><rect x="1169.7" y="565" width="20.3" height="15.0" fill="rgb(114,114,233)" rx="2" ry="2" />
<text  x="1172.66" y="575.5" ></text>
</g>
<g >
<title>__io_queue_sqe (343,434,340 samples, 58.62%)</title><rect x="457.6" y="549" width="691.7" height="15.0" fill="rgb(124,124,241)" rx="2" ry="2" />
<text  x="460.59" y="559.5" >__io_queue_sqe</text>
</g>
<g >
<title>io_cqring_wait (10,101,010 samples, 1.72%)</title><rect x="437.2" y="581" width="20.4" height="15.0" fill="rgb(83,83,207)" rx="2" ry="2" />
<text  x="440.24" y="591.5" ></text>
</g>
<g >
<title>__import_iovec (20,202,020 samples, 3.45%)</title><rect x="1108.6" y="485" width="40.7" height="15.0" fill="rgb(90,90,214)" rx="2" ry="2" />
<text  x="1111.62" y="495.5" >__i..</text>
</g>
<g >
<title>__blk_mq_sched_dispatch_requests (20,202,020 samples, 3.45%)</title><rect x="1027.2" y="165" width="40.7" height="15.0" fill="rgb(112,112,232)" rx="2" ry="2" />
<text  x="1030.24" y="175.5" >__b..</text>
</g>
<g >
<title>srso_safe_ret (10,101,010 samples, 1.72%)</title><rect x="864.5" y="357" width="20.3" height="15.0" fill="rgb(107,107,227)" rx="2" ry="2" />
<text  x="867.48" y="367.5" ></text>
</g>
<g >
<title>ondemand_readahead (323,232,320 samples, 55.17%)</title><rect x="457.6" y="421" width="651.0" height="15.0" fill="rgb(135,135,251)" rx="2" ry="2" />
<text  x="460.59" y="431.5" >ondemand_readahead</text>
</g>
<g >
<title>__blk_mq_do_dispatch_sched (20,202,020 samples, 3.45%)</title><rect x="1027.2" y="133" width="40.7" height="15.0" fill="rgb(112,112,231)" rx="2" ry="2" />
<text  x="1030.24" y="143.5" >__b..</text>
</g>
<g >
<title>filemap_get_pages (10,101,010 samples, 1.72%)</title><rect x="416.9" y="437" width="20.3" height="15.0" fill="rgb(93,93,216)" rx="2" ry="2" />
<text  x="419.90" y="447.5" ></text>
</g>
<g >
<title>__handle_mm_fault (20,202,020 samples, 3.45%)</title><rect x="10.0" y="613" width="40.7" height="15.0" fill="rgb(82,82,207)" rx="2" ry="2" />
<text  x="13.00" y="623.5" >__h..</text>
</g>
<g >
<title>io_file_get_normal (10,101,010 samples, 1.72%)</title><rect x="1149.3" y="533" width="20.4" height="15.0" fill="rgb(110,110,230)" rx="2" ry="2" />
<text  x="1152.31" y="543.5" ></text>
</g>
<g >
<title>tctx_task_work (191,919,190 samples, 32.76%)</title><rect x="50.7" y="565" width="386.5" height="15.0" fill="rgb(133,133,249)" rx="2" ry="2" />
<text  x="53.69" y="575.5" >tctx_task_work</text>
</g>
<g >
<title>io_req_task_submit (10,101,010 samples, 1.72%)</title><rect x="437.2" y="517" width="20.4" height="15.0" fill="rgb(115,115,234)" rx="2" ry="2" />
<text  x="440.24" y="527.5" ></text>
</g>
<g >
<title>xas_load (10,101,010 samples, 1.72%)</title><rect x="1088.3" y="325" width="20.3" height="15.0" fill="rgb(95,95,217)" rx="2" ry="2" />
<text  x="1091.28" y="335.5" ></text>
</g>
<g >
<title>syscall (555,555,550 samples, 94.83%)</title><rect x="50.7" y="677" width="1119.0" height="15.0" fill="rgb(115,115,234)" rx="2" ry="2" />
<text  x="53.69" y="687.5" >syscall</text>
</g>
<g >
<title>get_page_from_freelist (20,202,020 samples, 3.45%)</title><rect x="10.0" y="533" width="40.7" height="15.0" fill="rgb(136,136,252)" rx="2" ry="2" />
<text  x="13.00" y="543.5" >get..</text>
</g>
<g >
<title>blk_mq_dispatch_rq_list (20,202,020 samples, 3.45%)</title><rect x="1027.2" y="117" width="40.7" height="15.0" fill="rgb(122,122,240)" rx="2" ry="2" />
<text  x="1030.24" y="127.5" >blk..</text>
</g>
<g >
<title>cgroup_rstat_updated (10,101,010 samples, 1.72%)</title><rect x="1067.9" y="261" width="20.4" height="15.0" fill="rgb(127,127,244)" rx="2" ry="2" />
<text  x="1070.93" y="271.5" ></text>
</g>
<g >
<title>page_cache_sync_ra (323,232,320 samples, 55.17%)</title><rect x="457.6" y="437" width="651.0" height="15.0" fill="rgb(118,118,236)" rx="2" ry="2" />
<text  x="460.59" y="447.5" >page_cache_sync_ra</text>
</g>
<g >
<title>io_issue_sqe (343,434,340 samples, 58.62%)</title><rect x="457.6" y="533" width="691.7" height="15.0" fill="rgb(125,125,243)" rx="2" ry="2" />
<text  x="460.59" y="543.5" >io_issue_sqe</text>
</g>
<g >
<title>blk_flush_plug_list (20,202,020 samples, 3.45%)</title><rect x="1027.2" y="277" width="40.7" height="15.0" fill="rgb(89,89,212)" rx="2" ry="2" />
<text  x="1030.24" y="287.5" >blk..</text>
</g>
<g >
<title>task_work_run (10,101,010 samples, 1.72%)</title><rect x="1169.7" y="613" width="20.3" height="15.0" fill="rgb(85,85,209)" rx="2" ry="2" />
<text  x="1172.66" y="623.5" ></text>
</g>
<g >
<title>filemap_get_pages (323,232,320 samples, 55.17%)</title><rect x="457.6" y="453" width="651.0" height="15.0" fill="rgb(93,93,216)" rx="2" ry="2" />
<text  x="460.59" y="463.5" >filemap_get_pages</text>
</g>
<g >
<title>task_work_run (191,919,190 samples, 32.76%)</title><rect x="50.7" y="581" width="386.5" height="15.0" fill="rgb(85,85,209)" rx="2" ry="2" />
<text  x="53.69" y="591.5" >task_work_run</text>
</g>
<g >
<title>exc_page_fault (20,202,020 samples, 3.45%)</title><rect x="10.0" y="661" width="40.7" height="15.0" fill="rgb(89,89,212)" rx="2" ry="2" />
<text  x="13.00" y="671.5" >exc..</text>
</g>
<g >
<title>ext4_file_read_iter (323,232,320 samples, 55.17%)</title><rect x="457.6" y="501" width="651.0" height="15.0" fill="rgb(127,127,244)" rx="2" ry="2" />
<text  x="460.59" y="511.5" >ext4_file_read_iter</text>
</g>
<g >
<title>__io_cqring_overflow_flush (10,101,010 samples, 1.72%)</title><rect x="1169.7" y="533" width="20.3" height="15.0" fill="rgb(136,136,251)" rx="2" ry="2" />
<text  x="1172.66" y="543.5" ></text>
</g>
<g >
<title>__do_sys_io_uring_enter (363,636,360 samples, 62.07%)</title><rect x="437.2" y="597" width="732.5" height="15.0" fill="rgb(83,83,207)" rx="2" ry="2" />
<text  x="440.24" y="607.5" >__do_sys_io_uring_enter</text>
</g>
<g >
<title>exit_to_user_mode_loop (191,919,190 samples, 32.76%)</title><rect x="50.7" y="597" width="386.5" height="15.0" fill="rgb(103,103,224)" rx="2" ry="2" />
<text  x="53.69" y="607.5" >exit_to_user_mode_loop</text>
</g>
<g >
<title>entry_SYSCALL_64_after_hwframe (555,555,550 samples, 94.83%)</title><rect x="50.7" y="661" width="1119.0" height="15.0" fill="rgb(96,96,218)" rx="2" ry="2" />
<text  x="53.69" y="671.5" >entry_SYSCALL_64_after_hwframe</text>
</g>
<g >
<title>do_group_exit (10,101,010 samples, 1.72%)</title><rect x="1169.7" y="645" width="20.3" height="15.0" fill="rgb(97,97,219)" rx="2" ry="2" />
<text  x="1172.66" y="655.5" ></text>
</g>
<g >
<title>__alloc_pages (111,111,110 samples, 18.97%)</title><rect x="477.9" y="357" width="223.8" height="15.0" fill="rgb(113,113,233)" rx="2" ry="2" />
<text  x="480.93" y="367.5" >__alloc_pages</text>
</g>
<g >
<title>mptscsih_qcmd (20,202,020 samples, 3.45%)</title><rect x="1027.2" y="53" width="40.7" height="15.0" fill="rgb(107,107,227)" rx="2" ry="2" />
<text  x="1030.24" y="63.5" >mpt..</text>
</g>
<g >
<title>__io_queue_sqe (10,101,010 samples, 1.72%)</title><rect x="437.2" y="501" width="20.4" height="15.0" fill="rgb(124,124,241)" rx="2" ry="2" />
<text  x="440.24" y="511.5" ></text>
</g>
<g >
<title>blk_mq_submit_bio (20,202,020 samples, 3.45%)</title><rect x="1027.2" y="293" width="40.7" height="15.0" fill="rgb(103,103,224)" rx="2" ry="2" />
<text  x="1030.24" y="303.5" >blk..</text>
</g>
<g >
<title>iovec_from_user.part.0 (10,101,010 samples, 1.72%)</title><rect x="1129.0" y="469" width="20.3" height="15.0" fill="rgb(124,124,242)" rx="2" ry="2" />
<text  x="1131.97" y="479.5" ></text>
</g>
<g >
<title>page_cache_ra_unbounded (323,232,320 samples, 55.17%)</title><rect x="457.6" y="405" width="651.0" height="15.0" fill="rgb(115,115,234)" rx="2" ry="2" />
<text  x="460.59" y="415.5" >page_cache_ra_unbounded</text>
</g>
<g >
<title>__lock_text_start (50,505,050 samples, 8.62%)</title><rect x="905.2" y="341" width="101.7" height="15.0" fill="rgb(112,112,232)" rx="2" ry="2" />
<text  x="908.17" y="351.5" >__lock_text_..</text>
</g>
<g >
<title>__fput (10,101,010 samples, 1.72%)</title><rect x="1169.7" y="581" width="20.3" height="15.0" fill="rgb(132,132,248)" rx="2" ry="2" />
<text  x="1172.66" y="591.5" ></text>
</g>
<g >
<title>io_read (191,919,190 samples, 32.76%)</title><rect x="50.7" y="501" width="386.5" height="15.0" fill="rgb(125,125,243)" rx="2" ry="2" />
<text  x="53.69" y="511.5" >io_read</text>
</g>
<g >
<title>all (585,858,580 samples, 100%)</title><rect x="10.0" y="741" width="1180.0" height="15.0" fill="rgb(90,90,213)" rx="2" ry="2" />
<text  x="13.00" y="751.5" ></text>
</g>
<g >
<title>fget (10,101,010 samples, 1.72%)</title><rect x="1149.3" y="517" width="20.4" height="15.0" fill="rgb(118,118,237)" rx="2" ry="2" />
<text  x="1152.31" y="527.5" ></text>
</g>
<g >
<title>__cond_resched (10,101,010 samples, 1.72%)</title><rect x="477.9" y="341" width="20.4" height="15.0" fill="rgb(95,95,217)" rx="2" ry="2" />
<text  x="480.93" y="351.5" ></text>
</g>
<g >
<title>__io_queue_sqe (191,919,190 samples, 32.76%)</title><rect x="50.7" y="533" width="386.5" height="15.0" fill="rgb(124,124,241)" rx="2" ry="2" />
<text  x="53.69" y="543.5" >__io_queue_sqe</text>
</g>
<g >
<title>xa_load (10,101,010 samples, 1.72%)</title><rect x="1088.3" y="341" width="20.3" height="15.0" fill="rgb(86,86,210)" rx="2" ry="2" />
<text  x="1091.28" y="351.5" ></text>
</g>
<g >
<title>__x64_sys_exit_group (10,101,010 samples, 1.72%)</title><rect x="1169.7" y="661" width="20.3" height="15.0" fill="rgb(91,91,214)" rx="2" ry="2" />
<text  x="1172.66" y="671.5" ></text>
</g>
<g >
<title>kfree (10,101,010 samples, 1.72%)</title><rect x="1169.7" y="517" width="20.3" height="15.0" fill="rgb(100,100,222)" rx="2" ry="2" />
<text  x="1172.66" y="527.5" ></text>
</g>
<g >
<title>blk_mq_sched_dispatch_requests (20,202,020 samples, 3.45%)</title><rect x="1027.2" y="181" width="40.7" height="15.0" fill="rgb(85,85,209)" rx="2" ry="2" />
<text  x="1030.24" y="191.5" >blk..</text>
</g>
<g >
<title>tctx_task_work (10,101,010 samples, 1.72%)</title><rect x="437.2" y="533" width="20.4" height="15.0" fill="rgb(133,133,249)" rx="2" ry="2" />
<text  x="440.24" y="543.5" ></text>
</g>
<g >
<title>__fget_files (10,101,010 samples, 1.72%)</title><rect x="1149.3" y="501" width="20.4" height="15.0" fill="rgb(93,93,216)" rx="2" ry="2" />
<text  x="1152.31" y="511.5" ></text>
</g>
<g >
<title>entry_SYSCALL_64_after_hwframe (10,101,010 samples, 1.72%)</title><rect x="1169.7" y="709" width="20.3" height="15.0" fill="rgb(96,96,218)" rx="2" ry="2" />
<text  x="1172.66" y="719.5" ></text>
</g>
<g >
<title>blk_mq_do_dispatch_sched (20,202,020 samples, 3.45%)</title><rect x="1027.2" y="149" width="40.7" height="15.0" fill="rgb(84,84,209)" rx="2" ry="2" />
<text  x="1030.24" y="159.5" >blk..</text>
</g>
<g >
<title>__blk_mq_run_hw_queue (20,202,020 samples, 3.45%)</title><rect x="1027.2" y="197" width="40.7" height="15.0" fill="rgb(116,116,235)" rx="2" ry="2" />
<text  x="1030.24" y="207.5" >__b..</text>
</g>
<g >
<title>__alloc_pages (20,202,020 samples, 3.45%)</title><rect x="10.0" y="549" width="40.7" height="15.0" fill="rgb(113,113,233)" rx="2" ry="2" />
<text  x="13.00" y="559.5" >__a..</text>
</g>
<g >
<title>submit_bio_noacct (30,303,030 samples, 5.17%)</title><rect x="1027.2" y="325" width="61.1" height="15.0" fill="rgb(87,87,211)" rx="2" ry="2" />
<text  x="1030.24" y="335.5" >submit..</text>
</g>
<g >
<title>mptspi_qcmd (20,202,020 samples, 3.45%)</title><rect x="1027.2" y="69" width="40.7" height="15.0" fill="rgb(84,84,208)" rx="2" ry="2" />
<text  x="1030.24" y="79.5" >mpt..</text>
</g>
<g >
<title>ext4_file_read_iter (10,101,010 samples, 1.72%)</title><rect x="437.2" y="453" width="20.4" height="15.0" fill="rgb(127,127,244)" rx="2" ry="2" />
<text  x="440.24" y="463.5" ></text>
</g>
<g >
<title>ext4_mpage_readpages (50,505,050 samples, 8.62%)</title><rect x="1006.9" y="357" width="101.7" height="15.0" fill="rgb(108,108,228)" rx="2" ry="2" />
<text  x="1009.90" y="367.5" >ext4_mpage_r..</text>
</g>
<g >
<title>blk_mq_sched_insert_requests (20,202,020 samples, 3.45%)</title><rect x="1027.2" y="245" width="40.7" height="15.0" fill="rgb(95,95,217)" rx="2" ry="2" />
<text  x="1030.24" y="255.5" >blk..</text>
</g>
<g >
<title>x64_sys_call (10,101,010 samples, 1.72%)</title><rect x="1169.7" y="677" width="20.3" height="15.0" fill="rgb(130,130,247)" rx="2" ry="2" />
<text  x="1172.66" y="687.5" ></text>
</g>
<g >
<title>__submit_bio (30,303,030 samples, 5.17%)</title><rect x="1027.2" y="309" width="61.1" height="15.0" fill="rgb(110,110,230)" rx="2" ry="2" />
<text  x="1030.24" y="319.5" >__subm..</text>
</g>
<g >
<title>__libc_start_call_main (575,757,570 samples, 98.28%)</title><rect x="10.0" y="709" width="1159.7" height="15.0" fill="rgb(87,87,210)" rx="2" ry="2" />
<text  x="13.00" y="719.5" >__libc_start_call_main</text>
</g>
<g >
<title>mpt_put_msg_frame (20,202,020 samples, 3.45%)</title><rect x="1027.2" y="37" width="40.7" height="15.0" fill="rgb(105,105,225)" rx="2" ry="2" />
<text  x="1030.24" y="47.5" >mpt..</text>
</g>
<g >
<title>main (555,555,550 samples, 94.83%)</title><rect x="50.7" y="693" width="1119.0" height="15.0" fill="rgb(126,126,243)" rx="2" ry="2" />
<text  x="53.69" y="703.5" >main</text>
</g>
<g >
<title>read_pages (50,505,050 samples, 8.62%)</title><rect x="1006.9" y="389" width="101.7" height="15.0" fill="rgb(107,107,227)" rx="2" ry="2" />
<text  x="1009.90" y="399.5" >read_pages</text>
</g>
<g >
<title>handle_mm_fault (20,202,020 samples, 3.45%)</title><rect x="10.0" y="629" width="40.7" height="15.0" fill="rgb(115,115,234)" rx="2" ry="2" />
<text  x="13.00" y="639.5" >han..</text>
</g>
<g >
<title>alloc_pages_vma (20,202,020 samples, 3.45%)</title><rect x="10.0" y="565" width="40.7" height="15.0" fill="rgb(138,138,253)" rx="2" ry="2" />
<text  x="13.00" y="575.5" >all..</text>
</g>
<g >
<title>__blk_mq_delay_run_hw_queue (20,202,020 samples, 3.45%)</title><rect x="1027.2" y="213" width="40.7" height="15.0" fill="rgb(94,94,217)" rx="2" ry="2" />
<text  x="1030.24" y="223.5" >__b..</text>
</g>
<g >
<title>submit_bio_checks (10,101,010 samples, 1.72%)</title><rect x="1067.9" y="293" width="20.4" height="15.0" fill="rgb(82,82,206)" rx="2" ry="2" />
<text  x="1070.93" y="303.5" ></text>
</g>
<g >
<title>memset (10,101,010 samples, 1.72%)</title><rect x="1129.0" y="453" width="20.3" height="15.0" fill="rgb(83,83,208)" rx="2" ry="2" />
<text  x="1131.97" y="463.5" ></text>
</g>
<g >
<title>do_user_addr_fault (20,202,020 samples, 3.45%)</title><rect x="10.0" y="645" width="40.7" height="15.0" fill="rgb(108,108,228)" rx="2" ry="2" />
<text  x="13.00" y="655.5" >do_..</text>
</g>
<g >
<title>io_issue_sqe (191,919,190 samples, 32.76%)</title><rect x="50.7" y="517" width="386.5" height="15.0" fill="rgb(125,125,243)" rx="2" ry="2" />
<text  x="53.69" y="527.5" >io_issue_sqe</text>
</g>
<g >
<title>copy_user_generic_string (181,818,180 samples, 31.03%)</title><rect x="50.7" y="437" width="366.2" height="15.0" fill="rgb(80,80,205)" rx="2" ry="2" />
<text  x="53.69" y="447.5" >copy_user_generic_string</text>
</g>
<g >
<title>io_req_task_submit (191,919,190 samples, 32.76%)</title><rect x="50.7" y="549" width="386.5" height="15.0" fill="rgb(115,115,234)" rx="2" ry="2" />
<text  x="53.69" y="559.5" >io_req_task_submit</text>
</g>
<g >
<title>io_submit_sqe (353,535,350 samples, 60.34%)</title><rect x="457.6" y="565" width="712.1" height="15.0" fill="rgb(136,136,252)" rx="2" ry="2" />
<text  x="460.59" y="575.5" >io_submit_sqe</text>
</g>
<g >
<title>scsi_queue_rq (20,202,020 samples, 3.45%)</title><rect x="1027.2" y="101" width="40.7" height="15.0" fill="rgb(97,97,219)" rx="2" ry="2" />
<text  x="1030.24" y="111.5" >scs..</text>
</g>
<g >
<title>generic_file_read_iter (10,101,010 samples, 1.72%)</title><rect x="437.2" y="437" width="20.4" height="15.0" fill="rgb(100,100,222)" rx="2" ry="2" />
<text  x="440.24" y="447.5" ></text>
</g>
<g >
<title>filemap_read (191,919,190 samples, 32.76%)</title><rect x="50.7" y="453" width="386.5" height="15.0" fill="rgb(130,130,246)" rx="2" ry="2" />
<text  x="53.69" y="463.5" >filemap_read</text>
</g>
<g >
<title>io_import_iovec (20,202,020 samples, 3.45%)</title><rect x="1108.6" y="501" width="40.7" height="15.0" fill="rgb(113,113,232)" rx="2" ry="2" />
<text  x="1111.62" y="511.5" >io_..</text>
</g>
<g >
<title>clear_page_rep (20,202,020 samples, 3.45%)</title><rect x="10.0" y="517" width="40.7" height="15.0" fill="rgb(137,137,253)" rx="2" ry="2" />
<text  x="13.00" y="527.5" >cle..</text>
</g>
<g >
<title>io_run_task_work (10,101,010 samples, 1.72%)</title><rect x="437.2" y="565" width="20.4" height="15.0" fill="rgb(135,135,250)" rx="2" ry="2" />
<text  x="440.24" y="575.5" ></text>
</g>
<g >
<title>task_work_run (10,101,010 samples, 1.72%)</title><rect x="437.2" y="549" width="20.4" height="15.0" fill="rgb(85,85,209)" rx="2" ry="2" />
<text  x="440.24" y="559.5" ></text>
</g>
<g >
<title>exit_to_user_mode_prepare (191,919,190 samples, 32.76%)</title><rect x="50.7" y="613" width="386.5" height="15.0" fill="rgb(108,108,228)" rx="2" ry="2" />
<text  x="53.69" y="623.5" >exit_to_user_mode_prepare</text>
</g>
<g >
<title>filemap_read (323,232,320 samples, 55.17%)</title><rect x="457.6" y="469" width="651.0" height="15.0" fill="rgb(130,130,246)" rx="2" ry="2" />
<text  x="460.59" y="479.5" >filemap_read</text>
</g>
<g >
<title>__x64_sys_io_uring_enter (363,636,360 samples, 62.07%)</title><rect x="437.2" y="613" width="732.5" height="15.0" fill="rgb(87,87,210)" rx="2" ry="2" />
<text  x="440.24" y="623.5" >__x64_sys_io_uring_enter</text>
</g>
<g >
<title>xas_nomem (10,101,010 samples, 1.72%)</title><rect x="884.8" y="357" width="20.4" height="15.0" fill="rgb(94,94,216)" rx="2" ry="2" />
<text  x="887.83" y="367.5" ></text>
</g>
<g >
<title>filemap_get_read_batch (10,101,010 samples, 1.72%)</title><rect x="416.9" y="421" width="20.3" height="15.0" fill="rgb(112,112,231)" rx="2" ry="2" />
<text  x="419.90" y="431.5" ></text>
</g>
<g >
<title>io_submit_sqes (353,535,350 samples, 60.34%)</title><rect x="457.6" y="581" width="712.1" height="15.0" fill="rgb(84,84,209)" rx="2" ry="2" />
<text  x="460.59" y="591.5" >io_submit_sqes</text>
</g>
<g >
<title>__page_cache_alloc (121,212,120 samples, 20.69%)</title><rect x="457.6" y="389" width="244.1" height="15.0" fill="rgb(112,112,232)" rx="2" ry="2" />
<text  x="460.59" y="399.5" >__page_cache_alloc</text>
</g>
<g >
<title>io_ring_ctx_wait_and_kill (10,101,010 samples, 1.72%)</title><rect x="1169.7" y="549" width="20.3" height="15.0" fill="rgb(102,102,224)" rx="2" ry="2" />
<text  x="1172.66" y="559.5" ></text>
</g>
<g >
<title>alloc_pages (121,212,120 samples, 20.69%)</title><rect x="457.6" y="373" width="244.1" height="15.0" fill="rgb(86,86,210)" rx="2" ry="2" />
<text  x="460.59" y="383.5" >alloc_pages</text>
</g>
<g >
<title>__memset_avx2_unaligned_erms (20,202,020 samples, 3.45%)</title><rect x="10.0" y="693" width="40.7" height="15.0" fill="rgb(102,102,223)" rx="2" ry="2" />
<text  x="13.00" y="703.5" >__m..</text>
</g>
<g >
<title>ext4_readahead (50,505,050 samples, 8.62%)</title><rect x="1006.9" y="373" width="101.7" height="15.0" fill="rgb(136,136,252)" rx="2" ry="2" />
<text  x="1009.90" y="383.5" >ext4_readahead</text>
</g>
<g >
<title>io_issue_sqe (10,101,010 samples, 1.72%)</title><rect x="437.2" y="485" width="20.4" height="15.0" fill="rgb(125,125,243)" rx="2" ry="2" />
<text  x="440.24" y="495.5" ></text>
</g>
</g>
</svg>
